<!DOCTYPE svg PUBLIC "-//W3C//DTD SVG 1.1//EN" "http://www.w3.org/Graphics/SVG/1.1/DTD/svg11.dtd">
<!-- Uploaded to: SVG Repo, www.svgrepo.com, Transformed by: SVG Repo Mixer Tools -->
<svg width="800px" height="800px" viewBox="0 0 512 512" id="Layer_1" version="1.1" xml:space="preserve" xmlns="http://www.w3.org/2000/svg" xmlns:xlink="http://www.w3.org/1999/xlink" fill="#000000">
<g id="SVGRepo_bgCarrier" stroke-width="0"/>
<g id="SVGRepo_tracerCarrier" stroke-linecap="round" stroke-linejoin="round"/>
<g id="SVGRepo_iconCarrier"> <style type="text/css"> .st0{fill:#596249;} </style> <g> <path class="st0" d="M210.8,401.6c1.4-2.6,2.7-5.3,4-8c5.9-11.7,12-23.8,19.7-34.8c-2.3-11.9-0.8-22.9,4.4-32 c2.1-3.8,4.8-7,7.3-10.2c3.3-4,6.3-7.8,7.5-11.8c2.2-7.2-1.5-15.1-5.6-20.1c-5.4-6.5-13.2-11.3-20.7-15.9 c-18.5-11.3-37-22.7-55.4-34c-8-4.9-17-10.4-24.2-18.2c-2.7-2.9-5-6-6.8-9.2v197.9h-14c-38,0-69,30.7-69.5,68.6v1.5h45.2 c0-2.8,1.7-5.4,4.5-6.5c3.1-1.2,6.5-2.3,9.9-3.2c6.1-1.6,12.3-2.9,18.3-4.1c12.9-2.6,25.1-5.1,35.8-11.1 C189.3,440.3,200.9,421,210.8,401.6z"/> <path class="st0" d="M179.2,222.9c18.5,11.4,37,22.7,55.5,34c8.1,5,17.3,10.6,24.2,18.9c8.4,10.1,11.4,22.4,8.2,33 c-2,6.7-6.3,12-10.1,16.6c-2.3,2.8-4.4,5.5-6,8.2c-1.6,2.8-2.6,5.9-3.2,9.3c0.2-0.2,0.4-0.4,0.6-0.5c12-11.4,26.6-19.1,40.6-26.6 c13.8-7.3,26.9-14.2,37.4-24.2c15.9-15.1,24.9-37.7,24.1-60.7c-0.5-13.2-4.7-31.9-15.2-44.7c-1.1-1.3-1.6-2.9-1.6-4.4h-8.4 L256,254.8l-63.7-66.9l-5.6-5.9h-36.6c0,0.6-0.1,1.2-0.3,1.9c-0.3,1-0.4,2-0.5,3c-0.4,6.6,2.7,14,8.6,20.4 C163.8,213.5,171.6,218.3,179.2,222.9z"/> <path class="st0" d="M378,449.7c-8.3-1.9-16.9-3.4-25.3-4.8c-19.8-3.4-40.3-7-59.1-16c-20.1-9.6-37.5-25.4-49-44.4 c-1.7-2.8-3.2-5.6-4.5-8.5c-4.6,7.7-8.7,15.9-12.8,23.9c-1.3,2.7-2.7,5.4-4.1,8.1c-10.3,20.3-23.8,42.6-45.5,54.7 c-12.5,7-26.4,9.8-39.8,12.6c-0.3,0.1-0.6,0.1-0.9,0.2h293.4c-2.7-2.7-5.8-5.5-9.2-7.9C409.9,459.6,395.8,453.8,378,449.7z"/> <path class="st0" d="M385.2,405.4h-14V181.9h-21.7c10.3,15.1,14.6,34.5,15.1,48.6c1,26.9-9.7,53.6-28.4,71.3 c-12,11.4-26.5,19-40.5,26.4c-13.9,7.3-26.9,14.2-37.6,24.3c-2.9,2.8-5.7,5.8-8.4,9.3c1.6,5.1,3.9,10.4,6.9,15.3 c10.1,16.7,25.4,30.6,43,39c17.1,8.2,35.7,11.4,55.5,14.9c8.5,1.5,17.4,3,26,5c19.6,4.5,35.4,11,48.2,20c6.6,4.7,12,10.3,16,14.7 c1.2,1.3,1.8,3,1.8,4.7h7.6V474C454.2,436.1,423.2,405.4,385.2,405.4z"/> <path class="st0" d="M126.8,391.4V99.9c-45.6,0-82.7,36.6-83.5,82.1h0v1.4v288.2v3.3c0-1.1,0-2.2,0.1-3.3 C45.1,427,81.8,391.4,126.8,391.4z"/> <path class="st0" d="M468.7,183.2v-1.3h0c0,0,0,0,0,0c-0.8-45.4-37.9-82.1-83.5-82.1v291.5c45.7,0,82.8,36.7,83.5,82.1 c0,0.4,0,0.9,0,1.4v-1.4V183.4C468.7,183.3,468.7,183.3,468.7,183.2z"/> <path class="st0" d="M202.4,178.2l3.5,3.7l50,52.6l50-52.6l3.5-3.7l9.7-10.2c11.1-13.8,17.7-31.4,17.7-50.5c0-44.7-36.3-81-81-81 s-81,36.3-81,81c0,19.1,6.6,36.7,17.7,50.5L202.4,178.2z M256,83.9c18.5,0,33.6,15,33.6,33.6S274.5,151,256,151s-33.6-15-33.6-33.6 S237.5,83.9,256,83.9z"/> </g> </g>
</svg>